# xmcd CD database file
#
# Track frame offsets:
#	150
#	20305
#	32452
#	46825
#	63885
#	78075
#	93360
#	107952
#	122232
#	136447
#
# Disc length: 2039 seconds
#
# Revision: 3
# Processed by: cddbd v1.5.1PL0 Copyright (c) Steve Scherf et al.
# Submitted via: CDex 1.51
#
DISCID=7507f50a
DTITLE=Blues Saraceno - Hair Pick
DYEAR=1994
DGENRE=
TTITLE0=Stinky Kitty
TTITLE1=Rabbit Soup
TTITLE2=My Generation
TTITLE3=King For a Day
TTITLE4=Pretty People
TTITLE5=Feedin' The Box
TTITLE6=Fat Padding
TTITLE7=Far From Home
TTITLE8=Chewing On Crayons
TTITLE9=Bouree
EXTD=YEAR: 1994
EXTT0=
EXTT1=
EXTT2=
EXTT3=
EXTT4=
EXTT5=
EXTT6=
EXTT7=
EXTT8=
EXTT9=
PLAYORDER=
